<?xml version="1.0" encoding="UTF-8"?>
<!DOCTYPE svg PUBLIC "-//W3C//DTD SVG 1.1//EN" "http://www.w3.org/Graphics/SVG/1.1/DTD/svg11.dtd">
<!-- Creator: CorelDRAW X7 -->
<svg xmlns="http://www.w3.org/2000/svg" xml:space="preserve" width="210mm" height="210mm" version="1.1" style="shape-rendering:geometricPrecision; text-rendering:geometricPrecision; image-rendering:optimizeQuality; fill-rule:evenodd; clip-rule:evenodd"
viewBox="0 0 20045 20045"
 xmlns:xlink="http://www.w3.org/1999/xlink">
 <defs>
  <style type="text/css">
   <![CDATA[
    .fil0 {fill:none}
    .fil1 {fill:#A77E53}
    .fil2 {fill:#A87F54}
    .fil3 {fill:#A88055}
    .fil4 {fill:#A98055}
    .fil5 {fill:#A98156}
    .fil6 {fill:#AA8156}
    .fil7 {fill:#AA8257}
    .fil8 {fill:#AB8358}
    .fil9 {fill:#AC8459}
    .fil10 {fill:#AC855A}
    .fil11 {fill:#AD855A}
    .fil12 {fill:#AD865A}
    .fil13 {fill:#AD865B}
    .fil14 {fill:#AE875B}
    .fil15 {fill:#AE875C}
    .fil16 {fill:#AE885C}
    .fil17 {fill:#AF885D}
    .fil18 {fill:#AF895D}
    .fil19 {fill:#B0895E}
    .fil20 {fill:#B08A5E}
    .fil21 {fill:#B08A5F}
    .fil22 {fill:#B18A5F}
    .fil23 {fill:#B18B5F}
    .fil24 {fill:#B18B60}
    .fil25 {fill:#B28C60}
    .fil26 {fill:#B28C61}
    .fil27 {fill:#B28D62}
    .fil28 {fill:#B38D62}
    .fil29 {fill:#B38E63}
    .fil30 {fill:#B48E63}
    .fil31 {fill:#B48F64}
    .fil32 {fill:#B58F64}
    .fil33 {fill:#B59065}
    .fil34 {fill:#B69166}
    .fil35 {fill:#B69267}
    .fil36 {fill:#B79267}
    .fil37 {fill:#B79368}
    .fil38 {fill:#B89368}
    .fil39 {fill:#B89469}
    .fil40 {fill:#B99569}
    .fil41 {fill:#B9956A}
    .fil42 {fill:#B9966A}
    .fil43 {fill:#BA966B}
    .fil44 {fill:#BA976B}
    .fil45 {fill:#BA976C}
    .fil46 {fill:#BB976C}
    .fil47 {fill:#BB986C}
    .fil48 {fill:#BB986D}
    .fil49 {fill:#BC986D}
    .fil50 {fill:#BC996D}
    .fil51 {fill:#BC996E}
    .fil52 {fill:#BD9A6E}
    .fil53 {fill:#BD9A6F}
    .fil54 {fill:#BD9B6F}
    .fil55 {fill:#BE9B70}
    .fil56 {fill:#BE9C70}
    .fil57 {fill:#BE9C71}
    .fil58 {fill:#BF9C71}
    .fil59 {fill:#BF9D71}
    .fil60 {fill:#BF9D72}
    .fil61 {fill:#C09D72}
    .fil62 {fill:#C09E72}
    .fil63 {fill:#C09E73}
    .fil64 {fill:#C19F73}
    .fil65 {fill:#C19F74}
    .fil66 {fill:#C1A074}
    .fil67 {fill:#C2A075}
    .fil68 {fill:#C2A175}
    .fil69 {fill:#C2A176}
    .fil70 {fill:#C3A176}
    .fil71 {fill:#C3A276}
    .fil72 {fill:#C3A277}
    .fil73 {fill:#C4A377}
    .fil74 {fill:#C4A378}
    .fil75 {fill:#C4A478}
    .fil76 {fill:#C5A478}
    .fil77 {fill:#C5A479}
    .fil78 {fill:#C5A579}
    .fil79 {fill:#C6A57A}
    .fil80 {fill:#C6A67A}
    .fil81 {fill:#C6A67B}
    .fil82 {fill:#C7A77B}
    .fil83 {fill:#C7A77C}
    .fil84 {fill:#C8A87C}
    .fil85 {fill:#C8A87D}
    .fil86 {fill:#C8A97D}
    .fil87 {fill:#C9A97D}
    .fil88 {fill:#C9A97E}
    .fil89 {fill:#C9AA7E}
    .fil90 {fill:#C9AA7F}
    .fil91 {fill:#CAAA7F}
    .fil92 {fill:#CAAB7F}
    .fil93 {fill:#CAAB80}
    .fil94 {fill:#CBAC80}
    .fil95 {fill:#CBAC81}
    .fil96 {fill:#CCAD81}
    .fil97 {fill:#CCAD82}
    .fil98 {fill:#CCAE82}
    .fil99 {fill:#CDAE83}
    .fil100 {fill:#CDAF83}
    .fil101 {fill:#CDAF84}
    .fil102 {fill:#CEAF84}
    .fil103 {fill:#CEB084}
    .fil104 {fill:#CEB085}
    .fil105 {fill:#CFB185}
    .fil106 {fill:#CFB186}
    .fil107 {fill:#CFB286}
    .fil108 {fill:#D0B286}
    .fil109 {fill:#D0B287}
    .fil110 {fill:#D0B387}
    .fil111 {fill:#D1B388}
    .fil112 {fill:#D1B488}
    .fil113 {fill:#D1B489}
    .fil114 {fill:#D2B589}
    .fil115 {fill:#D2B58A}
    .fil116 {fill:#D2B68A}
    .fil117 {fill:#D3B68A}
    .fil118 {fill:#D3B68B}
    .fil119 {fill:#D3B78B}
    .fil120 {fill:#D4B78B}
    .fil121 {fill:#D4B78C}
    .fil122 {fill:#D4B88C}
    .fil123 {fill:#D5B88D}
    .fil124 {fill:#D5B98D}
    .fil125 {fill:#D5B98E}
    .fil126 {fill:#D6BA8E}
    .fil127 {fill:#D6BA8F}
    .fil128 {fill:#D6BB8F}
    .fil129 {fill:#D7BB8F}
    .fil130 {fill:#D7BB90}
    .fil131 {fill:#D7BC90}
    .fil132 {fill:#D8BC90}
    .fil133 {fill:#D8BC91}
    .fil134 {fill:#D8BD91}
    .fil135 {fill:#D9BD92}
    .fil136 {fill:#D9BE92}
    .fil137 {fill:#D9BE93}
    .fil138 {fill:#DABF93}
    .fil139 {fill:#DAC094}
    .fil140 {fill:#DBC094}
    .fil141 {fill:#DBC195}
    .fil142 {fill:#DCC195}
    .fil143 {fill:#DCC296}
    .fil144 {fill:#DDC397}
    .fil145 {fill:#DDC498}
    .fil146 {fill:#DEC498}
    .fil147 {fill:#DEC599}
    .fil148 {fill:#DFC599}
    .fil149 {fill:#DFC69A}
    .fil150 {fill:#E0C69A}
    .fil151 {fill:#E0C79B}
    .fil152 {fill:#E0C79C}
    .fil153 {fill:#E1C89C}
    .fil154 {fill:#E1C89D}
    .fil155 {fill:#E1C99D}
    .fil156 {fill:#E2C99D}
    .fil157 {fill:#E2C99E}
    .fil158 {fill:#E2CA9E}
    .fil159 {fill:#E3CA9F}
    .fil160 {fill:#E3CB9F}
    .fil161 {fill:#E4CBA0}
    .fil162 {fill:#E4CCA0}
    .fil163 {fill:#E4CCA1}
    .fil164 {fill:#E5CDA1}
    .fil165 {fill:#E5CDA2}
    .fil166 {fill:#E5CEA2}
    .fil167 {fill:#E6CEA2}
    .fil168 {fill:#E6CFA3}
    .fil169 {fill:#E7D0A4}
    .fil170 {fill:#E8D1A5}
    .fil171 {fill:#E8D2A6}
    .fil172 {fill:#E9D2A6}
    .fil173 {fill:#E9D3A7}
    .fil174 {fill:#EAD3A7}
    .fil175 {fill:#EAD4A8}
    .fil176 {fill:#EBD5A9}
    .fil181 {fill:#171D41;fill-rule:nonzero}
    .fil177 {fill:url(#id2)}
    .fil178 {fill:url(#id3)}
    .fil180 {fill:url(#id4)}
    .fil179 {fill:url(#id5);fill-rule:nonzero}
   ]]>
  </style>
      <clipPath id="id0">
       <path d="M7982 10110l-21 -12c-142,-81 -223,-222 -223,-386l0 -1042 0 -1042c0,-164 81,-305 223,-386l12 -7 1296 732 0 239 -864 498 873 500 0 169 -1296 737z"/>
      </clipPath>
      <clipPath id="id1">
       <path d="M12064 7235l13 7c142,81 224,222 224,386l0 1042 0 1042c0,164 -82,305 -224,386l-21 13 0 0 -1291 -753 0 -1385 1299 -738z"/>
      </clipPath>
  <linearGradient id="id2" gradientUnits="userSpaceOnUse" x1="8669.68" y1="6863.45" x2="11369" y2="6863.45">
   <stop offset="0" style="stop-opacity:1; stop-color:#C5A87D"/>
   <stop offset="1" style="stop-opacity:1; stop-color:#F5E1B3"/>
  </linearGradient>
  <linearGradient id="id3" gradientUnits="userSpaceOnUse" x1="8683.71" y1="10489" x2="11354.9" y2="10489">
   <stop offset="0" style="stop-opacity:1; stop-color:#F1CC86"/>
   <stop offset="1" style="stop-opacity:1; stop-color:#B78F5E"/>
  </linearGradient>
  <linearGradient id="id4" gradientUnits="userSpaceOnUse" xlink:href="#id3" x1="9698.08" y1="8693.96" x2="9998.81" y2="8693.96">
  </linearGradient>
  <linearGradient id="id5" gradientUnits="userSpaceOnUse" x1="7714.62" y1="8670.09" x2="12324" y2="8670.09">
   <stop offset="0" style="stop-opacity:1; stop-color:#AA8257"/>
   <stop offset="0.478431" style="stop-opacity:1; stop-color:#E0C79B"/>
   <stop offset="1" style="stop-opacity:1; stop-color:#B79368"/>
  </linearGradient>
 </defs>
 <g id="Layer_x0020_1">
  <metadata id="CorelCorpID_0Corel-Layer"/>
  <g id="_1322666384">
   <polygon class="fil0" points="0,0 20045,0 20045,20045 0,20045 "/>
   <g>
    <g>
     <g style="clip-path:url(#id0)">
      <polygon class="fil1" points="8431,8615 7265,8602 7266,8522 "/>
      <polygon id="1" class="fil2" points="8431,8615 7266,8535 7268,8468 "/>
      <polygon id="2" class="fil2" points="8431,8615 7267,8482 7270,8415 "/>
      <polygon id="3" class="fil2" points="8431,8615 7269,8429 7273,8362 "/>
      <polygon id="4" class="fil3" points="8431,8615 7272,8375 7277,8309 "/>
      <polygon id="5" class="fil4" points="8431,8615 7276,8322 7281,8256 "/>
      <polygon id="6" class="fil4" points="8431,8615 7280,8270 7286,8204 "/>
      <polygon id="7" class="fil5" points="8431,8615 7285,8217 7292,8151 "/>
      <polygon id="8" class="fil5" points="8431,8615 7290,8165 7298,8099 "/>
      <polygon id="9" class="fil6" points="8431,8615 7297,8112 7305,8048 "/>
      <polygon id="10" class="fil7" points="8431,8615 7304,8061 7313,7996 "/>
      <polygon id="11" class="fil7" points="8431,8615 7311,8009 7322,7945 "/>
      <polygon id="12" class="fil7" points="8431,8615 7320,7958 7331,7895 "/>
      <polygon id="13" class="fil8" points="8431,8615 7329,7907 7341,7844 "/>
      <polygon id="14" class="fil8" points="8431,8615 7338,7857 7351,7795 "/>
      <polygon id="15" class="fil8" points="8431,8615 7349,7807 7362,7745 "/>
      <polygon id="16" class="fil9" points="8431,8615 7359,7758 7374,7697 "/>
      <polygon id="17" class="fil9" points="8431,8615 7371,7709 7386,7649 "/>
      <polygon id="18" class="fil9" points="8431,8615 7383,7661 7399,7601 "/>
      <polygon id="19" class="fil10" points="8431,8615 7396,7613 7413,7554 "/>
      <polygon id="20" class="fil11" points="8431,8615 7410,7566 7427,7508 "/>
      <polygon id="21" class="fil12" points="8431,8615 7424,7519 7442,7462 "/>
      <polygon id="22" class="fil13" points="8431,8615 7438,7474 7458,7417 "/>
      <polygon id="23" class="fil13" points="8431,8615 7454,7428 7474,7373 "/>
      <polygon id="24" class="fil14" points="8431,8615 7470,7384 7490,7329 "/>
      <polygon id="25" class="fil15" points="8431,8615 7486,7340 7507,7287 "/>
      <polygon id="26" class="fil15" points="8431,8615 7503,7297 7525,7245 "/>
      <polygon id="27" class="fil16" points="8431,8615 7521,7255 7543,7204 "/>
      <polygon id="28" class="fil17" points="8431,8615 7539,7214 7562,7164 "/>
      <polygon id="29" class="fil17" points="8431,8615 7558,7174 7582,7124 "/>
      <polygon id="30" class="fil18" points="8431,8615 7577,7134 7602,7086 "/>
      <polygon id="31" class="fil19" points="8431,8615 7597,7095 7622,7048 "/>
      <polygon id="32" class="fil19" points="8431,8615 7617,7058 7643,7012 "/>
      <polygon id="33" class="fil20" points="8431,8615 7638,7021 7664,6976 "/>
      <polygon id="34" class="fil21" points="8431,8615 7659,6985 7686,6941 "/>
      <polygon id="35" class="fil22" points="8431,8615 7680,6950 7708,6908 "/>
      <polygon id="36" class="fil23" points="8431,8615 7703,6916 7731,6875 "/>
      <polygon id="37" class="fil24" points="8431,8615 7725,6883 7754,6843 "/>
      <polygon id="38" class="fil24" points="8431,8615 7748,6851 7777,6813 "/>
      <polygon id="39" class="fil25" points="8431,8615 7771,6821 7801,6784 "/>
      <polygon id="40" class="fil26" points="8431,8615 7795,6791 7826,6755 "/>
      <polygon id="41" class="fil26" points="8431,8615 7819,6762 7850,6728 "/>
      <polygon id="42" class="fil27" points="8431,8615 7844,6735 7875,6702 "/>
      <polygon id="43" class="fil28" points="8431,8615 7869,6709 7900,6677 "/>
      <polygon id="44" class="fil28" points="8431,8615 7894,6683 7926,6653 "/>
      <polygon id="45" class="fil29" points="8431,8615 7920,6659 7952,6631 "/>
      <polygon id="46" class="fil30" points="8431,8615 7946,6637 7978,6610 "/>
      <polygon id="47" class="fil30" points="8431,8615 7972,6615 8005,6589 "/>
      <polygon id="48" class="fil31" points="8431,8615 7998,6595 8032,6570 "/>
      <polygon id="49" class="fil31" points="8431,8615 8025,6575 8059,6553 "/>
      <polygon id="50" class="fil32" points="8431,8615 8052,6557 8086,6536 "/>
      <polygon id="51" class="fil33" points="8431,8615 8079,6541 8113,6521 "/>
      <polygon id="52" class="fil33" points="8431,8615 8106,6525 8141,6507 "/>
      <polygon id="53" class="fil33" points="8431,8615 8134,6511 8169,6495 "/>
      <polygon id="54" class="fil34" points="8431,8615 8162,6498 8197,6483 "/>
      <polygon id="55" class="fil34" points="8431,8615 8190,6486 8225,6473 "/>
      <polygon id="56" class="fil34" points="8431,8615 8218,6476 8253,6464 "/>
      <polygon id="57" class="fil35" points="8431,8615 8246,6467 8281,6457 "/>
      <polygon id="58" class="fil36" points="8431,8615 8274,6459 8310,6451 "/>
      <polygon id="59" class="fil36" points="8431,8615 8303,6452 8338,6446 "/>
      <polygon id="60" class="fil37" points="8431,8615 8331,6447 8367,6442 "/>
      <polygon id="61" class="fil38" points="8431,8615 8360,6443 8395,6440 "/>
      <polygon id="62" class="fil38" points="8431,8615 8388,6440 8424,6439 "/>
      <polygon id="63" class="fil39" points="8431,8615 8417,6439 8453,6439 "/>
      <polygon id="64" class="fil39" points="8431,8615 8445,6439 8481,6441 "/>
      <polygon id="65" class="fil40" points="8431,8615 8474,6440 8510,6444 "/>
      <polygon id="66" class="fil41" points="8431,8615 8503,6443 8538,6448 "/>
      <polygon id="67" class="fil41" points="8431,8615 8531,6447 8567,6454 "/>
      <polygon id="68" class="fil42" points="8431,8615 8560,6452 8595,6460 "/>
      <polygon id="69" class="fil43" points="8431,8615 8588,6459 8623,6469 "/>
      <polygon id="70" class="fil43" points="8431,8615 8616,6467 8652,6478 "/>
      <polygon id="71" class="fil44" points="8431,8615 8645,6476 8680,6489 "/>
      <polygon id="72" class="fil45" points="8431,8615 8673,6486 8707,6501 "/>
      <polygon id="73" class="fil46" points="8431,8615 8701,6498 8735,6514 "/>
      <polygon id="74" class="fil47" points="8431,8615 8728,6511 8763,6529 "/>
      <polygon id="75" class="fil48" points="8431,8615 8756,6525 8790,6544 "/>
      <polygon id="76" class="fil49" points="8431,8615 8783,6541 8817,6562 "/>
      <polygon id="77" class="fil50" points="8431,8615 8810,6557 8844,6580 "/>
      <polygon id="78" class="fil51" points="8431,8615 8837,6575 8871,6599 "/>
      <polygon id="79" class="fil51" points="8431,8615 8864,6595 8897,6620 "/>
      <polygon id="80" class="fil52" points="8431,8615 8890,6615 8923,6642 "/>
      <polygon id="81" class="fil53" points="8431,8615 8917,6637 8949,6665 "/>
      <polygon id="82" class="fil53" points="8431,8615 8943,6659 8974,6689 "/>
      <polygon id="83" class="fil54" points="8431,8615 8968,6683 9000,6715 "/>
      <polygon id="84" class="fil55" points="8431,8615 8993,6709 9024,6742 "/>
      <polygon id="85" class="fil55" points="8431,8615 9018,6735 9049,6769 "/>
      <polygon id="86" class="fil56" points="8431,8615 9043,6762 9073,6798 "/>
      <polygon id="87" class="fil57" points="8431,8615 9067,6791 9097,6828 "/>
      <polygon id="88" class="fil58" points="8431,8615 9091,6821 9120,6859 "/>
      <polygon id="89" class="fil59" points="8431,8615 9114,6851 9143,6891 "/>
      <polygon id="90" class="fil60" points="8431,8615 9137,6883 9165,6924 "/>
      <polygon id="91" class="fil61" points="8431,8615 9160,6916 9187,6958 "/>
      <polygon id="92" class="fil62" points="8431,8615 9182,6950 9209,6994 "/>
      <polygon id="93" class="fil63" points="8431,8615 9203,6985 9230,7030 "/>
      <polygon id="94" class="fil63" points="8431,8615 9225,7021 9251,7067 "/>
      <polygon id="95" class="fil64" points="8431,8615 9245,7058 9271,7105 "/>
      <polygon id="96" class="fil65" points="8431,8615 9266,7095 9290,7144 "/>
      <polygon id="97" class="fil65" points="8431,8615 9285,7134 9309,7184 "/>
      <polygon id="98" class="fil66" points="8431,8615 9305,7174 9328,7224 "/>
      <polygon id="99" class="fil67" points="8431,8615 9323,7214 9346,7266 "/>
      <polygon id="100" class="fil67" points="8431,8615 9341,7255 9363,7308 "/>
      <polygon id="101" class="fil68" points="8431,8615 9359,7297 9380,7351 "/>
      <polygon id="102" class="fil69" points="8431,8615 9376,7340 9397,7395 "/>
      <polygon id="103" class="fil70" points="8431,8615 9393,7384 9412,7440 "/>
      <polygon id="104" class="fil71" points="8431,8615 9408,7428 9428,7485 "/>
      <polygon id="105" class="fil72" points="8431,8615 9424,7474 9442,7531 "/>
      <polygon id="106" class="fil73" points="8431,8615 9438,7519 9456,7577 "/>
      <polygon id="107" class="fil73" points="8431,8615 9453,7566 9469,7625 "/>
      <polygon id="108" class="fil74" points="8431,8615 9466,7613 9482,7673 "/>
      <polygon id="109" class="fil75" points="8431,8615 9479,7661 9494,7721 "/>
      <polygon id="110" class="fil76" points="8431,8615 9491,7709 9506,7770 "/>
      <polygon id="111" class="fil77" points="8431,8615 9503,7758 9516,7819 "/>
      <polygon id="112" class="fil78" points="8431,8615 9514,7807 9527,7869 "/>
      <polygon id="113" class="fil78" points="8431,8615 9524,7857 9536,7920 "/>
      <polygon id="114" class="fil79" points="8431,8615 9534,7907 9545,7971 "/>
      <polygon id="115" class="fil80" points="8431,8615 9543,7958 9553,8022 "/>
      <polygon id="116" class="fil80" points="8431,8615 9551,8009 9560,8073 "/>
      <polygon id="117" class="fil81" points="8431,8615 9559,8061 9567,8125 "/>
      <polygon id="118" class="fil82" points="8431,8615 9566,8112 9573,8178 "/>
      <polygon id="119" class="fil82" points="8431,8615 9572,8165 9579,8230 "/>
      <polygon id="120" class="fil83" points="8431,8615 9577,8217 9584,8283 "/>
      <polygon id="121" class="fil84" points="8431,8615 9582,8270 9588,8336 "/>
      <polygon id="122" class="fil84" points="8431,8615 9586,8322 9591,8389 "/>
      <polygon id="123" class="fil85" points="8431,8615 9590,8375 9593,8442 "/>
      <polygon id="124" class="fil86" points="8431,8615 9593,8429 9595,8495 "/>
      <polygon id="125" class="fil87" points="8431,8615 9595,8482 9597,8548 "/>
      <polygon id="126" class="fil88" points="8431,8615 9596,8535 9597,8602 "/>
      <polygon id="127" class="fil89" points="8431,8615 9597,8589 9597,8655 "/>
      <polygon id="128" class="fil90" points="8431,8615 9597,8642 9596,8709 "/>
      <polygon id="129" class="fil91" points="8431,8615 9596,8695 9595,8762 "/>
      <polygon id="130" class="fil92" points="8431,8615 9595,8749 9592,8815 "/>
      <polygon id="131" class="fil93" points="8431,8615 9593,8802 9589,8868 "/>
      <polygon id="132" class="fil93" points="8431,8615 9590,8855 9586,8921 "/>
      <polygon id="133" class="fil94" points="8431,8615 9586,8908 9581,8974 "/>
      <polygon id="134" class="fil95" points="8431,8615 9582,8961 9576,9027 "/>
      <polygon id="135" class="fil95" points="8431,8615 9577,9014 9570,9079 "/>
      <polygon id="136" class="fil96" points="8431,8615 9572,9066 9564,9131 "/>
      <polygon id="137" class="fil97" points="8431,8615 9566,9118 9557,9183 "/>
      <polygon id="138" class="fil97" points="8431,8615 9559,9170 9549,9234 "/>
      <polygon id="139" class="fil98" points="8431,8615 9551,9221 9541,9285 "/>
      <polygon id="140" class="fil99" points="8431,8615 9543,9273 9531,9336 "/>
      <polygon id="141" class="fil99" points="8431,8615 9534,9323 9522,9386 "/>
      <polygon id="142" class="fil100" points="8431,8615 9524,9374 9511,9436 "/>
      <polygon id="143" class="fil101" points="8431,8615 9514,9423 9500,9485 "/>
      <polygon id="144" class="fil102" points="8431,8615 9503,9473 9488,9534 "/>
      <polygon id="145" class="fil103" points="8431,8615 9491,9522 9476,9582 "/>
      <polygon id="146" class="fil104" points="8431,8615 9479,9570 9463,9629 "/>
      <polygon id="147" class="fil104" points="8431,8615 9466,9618 9449,9676 "/>
      <polygon id="148" class="fil105" points="8431,8615 9453,9665 9435,9723 "/>
      <polygon id="149" class="fil106" points="8431,8615 9438,9711 9420,9768 "/>
      <polygon id="150" class="fil107" points="8431,8615 9424,9757 9405,9813 "/>
      <polygon id="151" class="fil108" points="8431,8615 9408,9802 9389,9858 "/>
      <polygon id="152" class="fil109" points="8431,8615 9393,9846 9372,9901 "/>
      <polygon id="153" class="fil110" points="8431,8615 9376,9890 9355,9944 "/>
      <polygon id="154" class="fil110" points="8431,8615 9359,9933 9337,9986 "/>
      <polygon id="155" class="fil111" points="8431,8615 9341,9975 9319,10027 "/>
      <polygon id="156" class="fil112" points="8431,8615 9323,10016 9300,10067 "/>
      <polygon id="157" class="fil112" points="8431,8615 9305,10057 9281,10106 "/>
      <polygon id="158" class="fil113" points="8431,8615 9285,10096 9261,10145 "/>
      <polygon id="159" class="fil114" points="8431,8615 9266,10135 9240,10182 "/>
      <polygon id="160" class="fil114" points="8431,8615 9245,10173 9219,10219 "/>
      <polygon id="161" class="fil115" points="8431,8615 9225,10210 9198,10255 "/>
      <polygon id="162" class="fil116" points="8431,8615 9203,10246 9176,10289 "/>
      <polygon id="163" class="fil117" points="8431,8615 9182,10280 9154,10323 "/>
      <polygon id="164" class="fil118" points="8431,8615 9160,10314 9131,10355 "/>
      <polygon id="165" class="fil119" points="8431,8615 9137,10347 9108,10387 "/>
      <polygon id="166" class="fil120" points="8431,8615 9114,10379 9085,10417 "/>
      <polygon id="167" class="fil121" points="8431,8615 9091,10410 9061,10447 "/>
      <polygon id="168" class="fil122" points="8431,8615 9067,10439 9037,10475 "/>
      <polygon id="169" class="fil122" points="8431,8615 9043,10468 9012,10502 "/>
      <polygon id="170" class="fil123" points="8431,8615 9018,10496 8987,10528 "/>
      <polygon id="171" class="fil124" points="8431,8615 8993,10522 8962,10553 "/>
      <polygon id="172" class="fil124" points="8431,8615 8968,10547 8936,10577 "/>
      <polygon id="173" class="fil125" points="8431,8615 8943,10571 8910,10600 "/>
      <polygon id="174" class="fil126" points="8431,8615 8917,10594 8884,10621 "/>
      <polygon id="175" class="fil126" points="8431,8615 8890,10616 8857,10641 "/>
      <polygon id="176" class="fil127" points="8431,8615 8864,10636 8831,10660 "/>
      <polygon id="177" class="fil128" points="8431,8615 8837,10655 8804,10678 "/>
      <polygon id="178" class="fil129" points="8431,8615 8810,10673 8776,10694 "/>
      <polygon id="179" class="fil130" points="8431,8615 8783,10690 8749,10709 "/>
      <polygon id="180" class="fil131" points="8431,8615 8756,10705 8721,10723 "/>
      <polygon id="181" class="fil132" points="8431,8615 8728,10720 8694,10736 "/>
      <polygon id="182" class="fil133" points="8431,8615 8701,10733 8666,10747 "/>
      <polygon id="183" class="fil134" points="8431,8615 8673,10744 8638,10757 "/>
      <polygon id="184" class="fil134" points="8431,8615 8645,10755 8609,10766 "/>
      <polygon id="185" class="fil135" points="8431,8615 8616,10764 8581,10774 "/>
      <polygon id="186" class="fil136" points="8431,8615 8588,10772 8553,10780 "/>
      <polygon id="187" class="fil136" points="8431,8615 8560,10778 8524,10785 "/>
      <polygon id="188" class="fil137" points="8431,8615 8531,10784 8495,10788 "/>
      <polygon id="189" class="fil138" points="8431,8615 8503,10787 8467,10791 "/>
      <polygon id="190" class="fil138" points="8431,8615 8474,10790 8438,10792 "/>
      <polygon id="191" class="fil139" points="8431,8615 8445,10791 8410,10791 "/>
      <polygon id="192" class="fil139" points="8431,8615 8417,10791 8381,10790 "/>
      <polygon id="193" class="fil140" points="8431,8615 8388,10790 8352,10787 "/>
      <polygon id="194" class="fil141" points="8431,8615 8360,10787 8324,10783 "/>
      <polygon id="195" class="fil141" points="8431,8615 8331,10784 8295,10777 "/>
      <polygon id="196" class="fil142" points="8431,8615 8303,10778 8267,10770 "/>
      <polygon id="197" class="fil143" points="8431,8615 8274,10772 8239,10762 "/>
      <polygon id="198" class="fil143" points="8431,8615 8246,10764 8211,10753 "/>
      <polygon id="199" class="fil143" points="8431,8615 8218,10755 8183,10742 "/>
      <polygon id="200" class="fil144" points="8431,8615 8190,10744 8155,10730 "/>
      <polygon id="201" class="fil144" points="8431,8615 8162,10733 8127,10716 "/>
      <polygon id="202" class="fil144" points="8431,8615 8134,10720 8099,10702 "/>
      <polygon id="203" class="fil145" points="8431,8615 8106,10705 8072,10686 "/>
      <polygon id="204" class="fil146" points="8431,8615 8079,10690 8045,10669 "/>
      <polygon id="205" class="fil146" points="8431,8615 8052,10673 8018,10651 "/>
      <polygon id="206" class="fil147" points="8431,8615 8025,10655 7991,10631 "/>
      <polygon id="207" class="fil147" points="8431,8615 7998,10636 7965,10610 "/>
      <polygon id="208" class="fil148" points="8431,8615 7972,10616 7939,10588 "/>
      <polygon id="209" class="fil149" points="8431,8615 7946,10594 7913,10565 "/>
      <polygon id="210" class="fil149" points="8431,8615 7920,10571 7888,10541 "/>
      <polygon id="211" class="fil150" points="8431,8615 7894,10547 7863,10516 "/>
      <polygon id="212" class="fil151" points="8431,8615 7869,10522 7838,10489 "/>
      <polygon id="213" class="fil151" points="8431,8615 7844,10496 7813,10461 "/>
      <polygon id="214" class="fil152" points="8431,8615 7819,10468 7789,10432 "/>
      <polygon id="215" class="fil153" points="8431,8615 7795,10439 7766,10402 "/>
      <polygon id="216" class="fil153" points="8431,8615 7771,10410 7742,10371 "/>
      <polygon id="217" class="fil154" points="8431,8615 7748,10379 7719,10339 "/>
      <polygon id="218" class="fil155" points="8431,8615 7725,10347 7697,10306 "/>
      <polygon id="219" class="fil156" points="8431,8615 7703,10314 7675,10272 "/>
      <polygon id="220" class="fil157" points="8431,8615 7680,10280 7653,10237 "/>
      <polygon id="221" class="fil158" points="8431,8615 7659,10246 7632,10201 "/>
      <polygon id="222" class="fil158" points="8431,8615 7638,10210 7612,10164 "/>
      <polygon id="223" class="fil159" points="8431,8615 7617,10173 7592,10126 "/>
      <polygon id="224" class="fil160" points="8431,8615 7597,10135 7572,10087 "/>
      <polygon id="225" class="fil160" points="8431,8615 7577,10096 7553,10047 "/>
      <polygon id="226" class="fil161" points="8431,8615 7558,10057 7534,10006 "/>
      <polygon id="227" class="fil162" points="8431,8615 7539,10016 7516,9965 "/>
      <polygon id="228" class="fil162" points="8431,8615 7521,9975 7499,9923 "/>
      <polygon id="229" class="fil163" points="8431,8615 7503,9933 7482,9879 "/>
      <polygon id="230" class="fil164" points="8431,8615 7486,9890 7466,9836 "/>
      <polygon id="231" class="fil164" points="8431,8615 7470,9846 7450,9791 "/>
      <polygon id="232" class="fil165" points="8431,8615 7454,9802 7435,9746 "/>
      <polygon id="233" class="fil166" points="8431,8615 7438,9757 7420,9700 "/>
      <polygon id="234" class="fil167" points="8431,8615 7424,9711 7406,9653 "/>
      <polygon id="235" class="fil168" points="8431,8615 7410,9665 7393,9606 "/>
      <polygon id="236" class="fil168" points="8431,8615 7396,9618 7380,9558 "/>
      <polygon id="237" class="fil168" points="8431,8615 7383,9570 7368,9509 "/>
      <polygon id="238" class="fil169" points="8431,8615 7371,9522 7357,9460 "/>
      <polygon id="239" class="fil169" points="8431,8615 7359,9473 7346,9411 "/>
      <polygon id="240" class="fil169" points="8431,8615 7349,9423 7336,9361 "/>
      <polygon id="241" class="fil170" points="8431,8615 7338,9374 7326,9311 "/>
      <polygon id="242" class="fil170" points="8431,8615 7329,9323 7317,9260 "/>
      <polygon id="243" class="fil170" points="8431,8615 7320,9273 7309,9209 "/>
      <polygon id="244" class="fil171" points="8431,8615 7311,9221 7302,9157 "/>
      <polygon id="245" class="fil172" points="8431,8615 7304,9170 7295,9105 "/>
      <polygon id="246" class="fil172" points="8431,8615 7297,9118 7289,9053 "/>
      <polygon id="247" class="fil173" points="8431,8615 7290,9066 7283,9001 "/>
      <polygon id="248" class="fil173" points="8431,8615 7285,9014 7279,8948 "/>
      <polygon id="249" class="fil174" points="8431,8615 7280,8961 7275,8895 "/>
      <polygon id="250" class="fil175" points="8431,8615 7276,8908 7271,8842 "/>
      <polygon id="251" class="fil175" points="8431,8615 7272,8855 7269,8789 "/>
      <polygon id="252" class="fil175" points="8431,8615 7269,8802 7267,8735 "/>
      <polygon id="253" class="fil176" points="8431,8615 7267,8749 7266,8682 "/>
      <polygon id="254" class="fil176" points="8431,8615 7266,8695 7265,8629 "/>
      <polygon id="255" class="fil1" points="8431,8615 7265,8642 7265,8589 "/>
     </g>
    </g>
    <path class="fil177" d="M11265 6778l-104 -59 -925 -527c-137,-79 -293,-79 -431,0l-925 527 -210 120 1354 755 1345 -757 -104 -59z"/>
    <g>
     <g style="clip-path:url(#id1)">
      <polygon class="fil176" points="12178,8701 10563,8683 10564,8571 "/>
      <polygon id="1" class="fil175" points="12178,8701 10564,8590 10566,8497 "/>
      <polygon id="2" class="fil175" points="12178,8701 10566,8516 10569,8423 "/>
      <polygon id="3" class="fil175" points="12178,8701 10569,8442 10574,8349 "/>
      <polygon id="4" class="fil174" points="12178,8701 10573,8368 10579,8276 "/>
      <polygon id="5" class="fil173" points="12178,8701 10577,8294 10585,8202 "/>
      <polygon id="6" class="fil173" points="12178,8701 10583,8221 10592,8129 "/>
      <polygon id="7" class="fil172" points="12178,8701 10590,8148 10600,8057 "/>
      <polygon id="8" class="fil172" points="12178,8701 10598,8075 10609,7984 "/>
      <polygon id="9" class="fil171" points="12178,8701 10606,8002 10618,7912 "/>
      <polygon id="10" class="fil170" points="12178,8701 10616,7930 10629,7841 "/>
      <polygon id="11" class="fil170" points="12178,8701 10627,7859 10641,7770 "/>
      <polygon id="12" class="fil170" points="12178,8701 10638,7788 10654,7700 "/>
      <polygon id="13" class="fil169" points="12178,8701 10651,7717 10667,7630 "/>
      <polygon id="14" class="fil169" points="12178,8701 10664,7647 10682,7561 "/>
      <polygon id="15" class="fil169" points="12178,8701 10678,7578 10697,7492 "/>
      <polygon id="16" class="fil168" points="12178,8701 10693,7509 10713,7424 "/>
      <polygon id="17" class="fil168" points="12178,8701 10709,7441 10731,7358 "/>
      <polygon id="18" class="fil168" points="12178,8701 10726,7374 10749,7291 "/>
      <polygon id="19" class="fil167" points="12178,8701 10744,7308 10768,7226 "/>
      <polygon id="20" class="fil166" points="12178,8701 10763,7243 10787,7162 "/>
      <polygon id="21" class="fil165" points="12178,8701 10782,7178 10808,7098 "/>
      <polygon id="22" class="fil164" points="12178,8701 10803,7114 10829,7036 "/>
      <polygon id="23" class="fil164" points="12178,8701 10824,7051 10852,6974 "/>
      <polygon id="24" class="fil163" points="12178,8701 10846,6990 10875,6914 "/>
      <polygon id="25" class="fil162" points="12178,8701 10869,6929 10898,6854 "/>
      <polygon id="26" class="fil162" points="12178,8701 10892,6869 10923,6796 "/>
      <polygon id="27" class="fil161" points="12178,8701 10917,6811 10948,6739 "/>
      <polygon id="28" class="fil160" points="12178,8701 10942,6753 10974,6683 "/>
      <polygon id="29" class="fil160" points="12178,8701 10968,6697 11001,6628 "/>
      <polygon id="30" class="fil159" points="12178,8701 10995,6642 11029,6575 "/>
      <polygon id="31" class="fil158" points="12178,8701 11022,6588 11057,6523 "/>
      <polygon id="32" class="fil158" points="12178,8701 11050,6536 11086,6472 "/>
      <polygon id="33" class="fil157" points="12178,8701 11079,6485 11115,6422 "/>
      <polygon id="34" class="fil156" points="12178,8701 11108,6435 11145,6374 "/>
      <polygon id="35" class="fil155" points="12178,8701 11138,6386 11176,6327 "/>
      <polygon id="36" class="fil154" points="12178,8701 11169,6339 11208,6282 "/>
      <polygon id="37" class="fil153" points="12178,8701 11200,6294 11240,6238 "/>
      <polygon id="38" class="fil153" points="12178,8701 11232,6249 11272,6196 "/>
      <polygon id="39" class="fil152" points="12178,8701 11264,6207 11305,6155 "/>
      <polygon id="40" class="fil151" points="12178,8701 11297,6165 11339,6116 "/>
      <polygon id="41" class="fil151" points="12178,8701 11331,6126 11373,6078 "/>
      <polygon id="42" class="fil150" points="12178,8701 11365,6087 11408,6042 "/>
      <polygon id="43" class="fil149" points="12178,8701 11399,6051 11443,6007 "/>
      <polygon id="44" class="fil149" points="12178,8701 11434,6016 11478,5974 "/>
      <polygon id="45" class="fil148" points="12178,8701 11469,5982 11514,5943 "/>
      <polygon id="46" class="fil147" points="12178,8701 11505,5951 11551,5913 "/>
      <polygon id="47" class="fil147" points="12178,8701 11541,5921 11587,5885 "/>
      <polygon id="48" class="fil146" points="12178,8701 11578,5892 11624,5859 "/>
      <polygon id="49" class="fil146" points="12178,8701 11615,5865 11662,5834 "/>
      <polygon id="50" class="fil145" points="12178,8701 11652,5840 11699,5811 "/>
      <polygon id="51" class="fil144" points="12178,8701 11690,5817 11737,5790 "/>
      <polygon id="52" class="fil144" points="12178,8701 11728,5796 11776,5771 "/>
      <polygon id="53" class="fil144" points="12178,8701 11766,5776 11814,5753 "/>
      <polygon id="54" class="fil143" points="12178,8701 11805,5758 11853,5737 "/>
      <polygon id="55" class="fil143" points="12178,8701 11843,5741 11892,5723 "/>
      <polygon id="56" class="fil143" points="12178,8701 11882,5727 11931,5711 "/>
      <polygon id="57" class="fil142" points="12178,8701 11921,5714 11970,5701 "/>
      <polygon id="58" class="fil141" points="12178,8701 11960,5703 12010,5692 "/>
      <polygon id="59" class="fil141" points="12178,8701 12000,5694 12049,5685 "/>
      <polygon id="60" class="fil140" points="12178,8701 12039,5687 12089,5680 "/>
      <polygon id="61" class="fil139" points="12178,8701 12079,5682 12128,5677 "/>
      <polygon id="62" class="fil139" points="12178,8701 12118,5678 12168,5676 "/>
      <polygon id="63" class="fil138" points="12178,8701 12158,5676 12208,5676 "/>
      <polygon id="64" class="fil138" points="12178,8701 12198,5676 12247,5678 "/>
      <polygon id="65" class="fil137" points="12178,8701 12237,5678 12287,5682 "/>
      <polygon id="66" class="fil136" points="12178,8701 12277,5682 12326,5688 "/>
      <polygon id="67" class="fil136" points="12178,8701 12316,5687 12366,5696 "/>
      <polygon id="68" class="fil135" points="12178,8701 12356,5694 12405,5706 "/>
      <polygon id="69" class="fil134" points="12178,8701 12395,5703 12444,5717 "/>
      <polygon id="70" class="fil134" points="12178,8701 12434,5714 12483,5730 "/>
      <polygon id="71" class="fil133" points="12178,8701 12473,5727 12522,5745 "/>
      <polygon id="72" class="fil132" points="12178,8701 12512,5741 12561,5762 "/>
      <polygon id="73" class="fil131" points="12178,8701 12551,5758 12599,5780 "/>
      <polygon id="74" class="fil130" points="12178,8701 12590,5776 12637,5801 "/>
      <polygon id="75" class="fil129" points="12178,8701 12628,5796 12675,5823 "/>
      <polygon id="76" class="fil128" points="12178,8701 12666,5817 12713,5846 "/>
      <polygon id="77" class="fil127" points="12178,8701 12703,5840 12750,5872 "/>
      <polygon id="78" class="fil126" points="12178,8701 12741,5865 12787,5899 "/>
      <polygon id="79" class="fil126" points="12178,8701 12778,5892 12823,5928 "/>
      <polygon id="80" class="fil125" points="12178,8701 12814,5921 12860,5958 "/>
      <polygon id="81" class="fil124" points="12178,8701 12850,5951 12895,5990 "/>
      <polygon id="82" class="fil124" points="12178,8701 12886,5982 12931,6024 "/>
      <polygon id="83" class="fil123" points="12178,8701 12922,6016 12965,6060 "/>
      <polygon id="84" class="fil122" points="12178,8701 12957,6051 13000,6097 "/>
      <polygon id="85" class="fil122" points="12178,8701 12991,6087 13034,6135 "/>
      <polygon id="86" class="fil121" points="12178,8701 13025,6126 13067,6175 "/>
      <polygon id="87" class="fil120" points="12178,8701 13059,6165 13100,6217 "/>
      <polygon id="88" class="fil119" points="12178,8701 13092,6207 13132,6260 "/>
      <polygon id="89" class="fil118" points="12178,8701 13124,6249 13164,6305 "/>
      <polygon id="90" class="fil117" points="12178,8701 13156,6294 13195,6351 "/>
      <polygon id="91" class="fil116" points="12178,8701 13187,6339 13225,6398 "/>
      <polygon id="92" class="fil115" points="12178,8701 13218,6386 13255,6447 "/>
      <polygon id="93" class="fil114" points="12178,8701 13248,6435 13284,6497 "/>
      <polygon id="94" class="fil114" points="12178,8701 13277,6485 13313,6549 "/>
      <polygon id="95" class="fil113" points="12178,8701 13306,6536 13341,6602 "/>
      <polygon id="96" class="fil112" points="12178,8701 13334,6588 13368,6656 "/>
      <polygon id="97" class="fil112" points="12178,8701 13361,6642 13394,6711 "/>
      <polygon id="98" class="fil111" points="12178,8701 13388,6697 13420,6768 "/>
      <polygon id="99" class="fil110" points="12178,8701 13414,6753 13445,6825 "/>
      <polygon id="100" class="fil110" points="12178,8701 13439,6811 13469,6884 "/>
      <polygon id="101" class="fil109" points="12178,8701 13463,6869 13493,6944 "/>
      <polygon id="102" class="fil108" points="12178,8701 13487,6929 13515,7005 "/>
      <polygon id="103" class="fil107" points="12178,8701 13510,6990 13537,7067 "/>
      <polygon id="104" class="fil106" points="12178,8701 13532,7051 13558,7130 "/>
      <polygon id="105" class="fil105" points="12178,8701 13553,7114 13578,7194 "/>
      <polygon id="106" class="fil104" points="12178,8701 13573,7178 13598,7259 "/>
      <polygon id="107" class="fil104" points="12178,8701 13593,7243 13616,7324 "/>
      <polygon id="108" class="fil103" points="12178,8701 13612,7308 13634,7391 "/>
      <polygon id="109" class="fil102" points="12178,8701 13629,7374 13651,7458 "/>
      <polygon id="110" class="fil101" points="12178,8701 13646,7441 13666,7526 "/>
      <polygon id="111" class="fil100" points="12178,8701 13662,7509 13681,7595 "/>
      <polygon id="112" class="fil99" points="12178,8701 13678,7578 13695,7665 "/>
      <polygon id="113" class="fil99" points="12178,8701 13692,7647 13708,7735 "/>
      <polygon id="114" class="fil98" points="12178,8701 13705,7717 13721,7805 "/>
      <polygon id="115" class="fil97" points="12178,8701 13718,7788 13732,7876 "/>
      <polygon id="116" class="fil97" points="12178,8701 13729,7859 13742,7948 "/>
      <polygon id="117" class="fil96" points="12178,8701 13740,7930 13752,8020 "/>
      <polygon id="118" class="fil95" points="12178,8701 13749,8002 13760,8093 "/>
      <polygon id="119" class="fil95" points="12178,8701 13758,8075 13768,8166 "/>
      <polygon id="120" class="fil94" points="12178,8701 13766,8148 13774,8239 "/>
      <polygon id="121" class="fil93" points="12178,8701 13772,8221 13780,8313 "/>
      <polygon id="122" class="fil93" points="12178,8701 13778,8294 13784,8386 "/>
      <polygon id="123" class="fil92" points="12178,8701 13783,8368 13788,8460 "/>
      <polygon id="124" class="fil91" points="12178,8701 13787,8442 13791,8534 "/>
      <polygon id="125" class="fil90" points="12178,8701 13790,8516 13792,8609 "/>
      <polygon id="126" class="fil89" points="12178,8701 13792,8590 13793,8683 "/>
      <polygon id="127" class="fil88" points="12178,8701 13793,8664 13793,8757 "/>
      <polygon id="128" class="fil87" points="12178,8701 13793,8738 13792,8831 "/>
      <polygon id="129" class="fil86" points="12178,8701 13792,8813 13789,8905 "/>
      <polygon id="130" class="fil85" points="12178,8701 13790,8887 13786,8979 "/>
      <polygon id="131" class="fil84" points="12178,8701 13787,8961 13782,9053 "/>
      <polygon id="132" class="fil84" points="12178,8701 13783,9035 13777,9127 "/>
      <polygon id="133" class="fil83" points="12178,8701 13778,9109 13771,9200 "/>
      <polygon id="134" class="fil82" points="12178,8701 13772,9182 13764,9273 "/>
      <polygon id="135" class="fil82" points="12178,8701 13766,9255 13756,9346 "/>
      <polygon id="136" class="fil81" points="12178,8701 13758,9328 13747,9419 "/>
      <polygon id="137" class="fil80" points="12178,8701 13749,9400 13737,9490 "/>
      <polygon id="138" class="fil80" points="12178,8701 13740,9472 13726,9562 "/>
      <polygon id="139" class="fil79" points="12178,8701 13729,9544 13715,9633 "/>
      <polygon id="140" class="fil78" points="12178,8701 13718,9615 13702,9703 "/>
      <polygon id="141" class="fil78" points="12178,8701 13705,9686 13688,9773 "/>
      <polygon id="142" class="fil77" points="12178,8701 13692,9755 13674,9842 "/>
      <polygon id="143" class="fil76" points="12178,8701 13678,9825 13659,9911 "/>
      <polygon id="144" class="fil75" points="12178,8701 13662,9893 13642,9978 "/>
      <polygon id="145" class="fil74" points="12178,8701 13646,9961 13625,10045 "/>
      <polygon id="146" class="fil73" points="12178,8701 13629,10028 13607,10111 "/>
      <polygon id="147" class="fil73" points="12178,8701 13612,10095 13588,10177 "/>
      <polygon id="148" class="fil72" points="12178,8701 13593,10160 13568,10241 "/>
      <polygon id="149" class="fil71" points="12178,8701 13573,10225 13548,10304 "/>
      <polygon id="150" class="fil70" points="12178,8701 13553,10288 13526,10367 "/>
      <polygon id="151" class="fil69" points="12178,8701 13532,10351 13504,10428 "/>
      <polygon id="152" class="fil68" points="12178,8701 13510,10413 13481,10489 "/>
      <polygon id="153" class="fil67" points="12178,8701 13487,10474 13457,10548 "/>
      <polygon id="154" class="fil67" points="12178,8701 13463,10533 13433,10606 "/>
      <polygon id="155" class="fil66" points="12178,8701 13439,10592 13407,10664 "/>
      <polygon id="156" class="fil65" points="12178,8701 13414,10649 13381,10720 "/>
      <polygon id="157" class="fil65" points="12178,8701 13388,10705 13355,10774 "/>
      <polygon id="158" class="fil64" points="12178,8701 13361,10760 13327,10828 "/>
      <polygon id="159" class="fil63" points="12178,8701 13334,10814 13299,10880 "/>
      <polygon id="160" class="fil63" points="12178,8701 13306,10867 13270,10931 "/>
      <polygon id="161" class="fil62" points="12178,8701 13277,10918 13240,10980 "/>
      <polygon id="162" class="fil61" points="12178,8701 13248,10968 13210,11028 "/>
      <polygon id="163" class="fil60" points="12178,8701 13218,11016 13179,11075 "/>
      <polygon id="164" class="fil59" points="12178,8701 13187,11063 13148,11121 "/>
      <polygon id="165" class="fil58" points="12178,8701 13156,11109 13116,11164 "/>
      <polygon id="166" class="fil57" points="12178,8701 13124,11153 13083,11207 "/>
      <polygon id="167" class="fil56" points="12178,8701 13092,11196 13050,11248 "/>
      <polygon id="168" class="fil55" points="12178,8701 13059,11237 13017,11287 "/>
      <polygon id="169" class="fil55" points="12178,8701 13025,11277 12983,11325 "/>
      <polygon id="170" class="fil54" points="12178,8701 12991,11315 12948,11361 "/>
      <polygon id="171" class="fil53" points="12178,8701 12957,11352 12913,11396 "/>
      <polygon id="172" class="fil53" points="12178,8701 12922,11387 12877,11429 "/>
      <polygon id="173" class="fil52" points="12178,8701 12886,11420 12841,11460 "/>
      <polygon id="174" class="fil51" points="12178,8701 12850,11452 12805,11490 "/>
      <polygon id="175" class="fil51" points="12178,8701 12814,11482 12768,11518 "/>
      <polygon id="176" class="fil50" points="12178,8701 12778,11511 12731,11544 "/>
      <polygon id="177" class="fil49" points="12178,8701 12741,11537 12694,11568 "/>
      <polygon id="178" class="fil48" points="12178,8701 12703,11562 12656,11591 "/>
      <polygon id="179" class="fil47" points="12178,8701 12666,11586 12618,11612 "/>
      <polygon id="180" class="fil46" points="12178,8701 12628,11607 12580,11632 "/>
      <polygon id="181" class="fil45" points="12178,8701 12590,11627 12541,11649 "/>
      <polygon id="182" class="fil44" points="12178,8701 12551,11645 12503,11665 "/>
      <polygon id="183" class="fil43" points="12178,8701 12512,11661 12464,11679 "/>
      <polygon id="184" class="fil43" points="12178,8701 12473,11676 12425,11692 "/>
      <polygon id="185" class="fil42" points="12178,8701 12434,11688 12385,11702 "/>
      <polygon id="186" class="fil41" points="12178,8701 12395,11699 12346,11711 "/>
      <polygon id="187" class="fil41" points="12178,8701 12356,11708 12307,11717 "/>
      <polygon id="188" class="fil40" points="12178,8701 12316,11716 12267,11722 "/>
      <polygon id="189" class="fil39" points="12178,8701 12277,11721 12227,11726 "/>
      <polygon id="190" class="fil39" points="12178,8701 12237,11725 12188,11727 "/>
      <polygon id="191" class="fil38" points="12178,8701 12198,11727 12148,11727 "/>
      <polygon id="192" class="fil38" points="12178,8701 12158,11727 12108,11724 "/>
      <polygon id="193" class="fil37" points="12178,8701 12118,11725 12069,11720 "/>
      <polygon id="194" class="fil36" points="12178,8701 12079,11721 12029,11714 "/>
      <polygon id="195" class="fil36" points="12178,8701 12039,11716 11990,11707 "/>
      <polygon id="196" class="fil35" points="12178,8701 12000,11708 11951,11697 "/>
      <polygon id="197" class="fil34" points="12178,8701 11960,11699 11911,11686 "/>
      <polygon id="198" class="fil34" points="12178,8701 11921,11688 11872,11673 "/>
      <polygon id="199" class="fil34" points="12178,8701 11882,11676 11834,11658 "/>
      <polygon id="200" class="fil33" points="12178,8701 11843,11661 11795,11641 "/>
      <polygon id="201" class="fil33" points="12178,8701 11805,11645 11757,11622 "/>
      <polygon id="202" class="fil33" points="12178,8701 11766,11627 11718,11602 "/>
      <polygon id="203" class="fil32" points="12178,8701 11728,11607 11681,11580 "/>
      <polygon id="204" class="fil31" points="12178,8701 11690,11586 11643,11556 "/>
      <polygon id="205" class="fil31" points="12178,8701 11652,11562 11606,11531 "/>
      <polygon id="206" class="fil30" points="12178,8701 11615,11537 11569,11504 "/>
      <polygon id="207" class="fil30" points="12178,8701 11578,11511 11532,11475 "/>
      <polygon id="208" class="fil29" points="12178,8701 11541,11482 11496,11444 "/>
      <polygon id="209" class="fil28" points="12178,8701 11505,11452 11460,11412 "/>
      <polygon id="210" class="fil28" points="12178,8701 11469,11420 11425,11379 "/>
      <polygon id="211" class="fil27" points="12178,8701 11434,11387 11390,11343 "/>
      <polygon id="212" class="fil26" points="12178,8701 11399,11352 11356,11306 "/>
      <polygon id="213" class="fil26" points="12178,8701 11365,11315 11322,11268 "/>
      <polygon id="214" class="fil25" points="12178,8701 11331,11277 11289,11227 "/>
      <polygon id="215" class="fil24" points="12178,8701 11297,11237 11256,11186 "/>
      <polygon id="216" class="fil24" points="12178,8701 11264,11196 11224,11143 "/>
      <polygon id="217" class="fil23" points="12178,8701 11232,11153 11192,11098 "/>
      <polygon id="218" class="fil22" points="12178,8701 11200,11109 11161,11052 "/>
      <polygon id="219" class="fil21" points="12178,8701 11169,11063 11130,11005 "/>
      <polygon id="220" class="fil20" points="12178,8701 11138,11016 11100,10956 "/>
      <polygon id="221" class="fil19" points="12178,8701 11108,10968 11071,10905 "/>
      <polygon id="222" class="fil19" points="12178,8701 11079,10918 11043,10854 "/>
      <polygon id="223" class="fil18" points="12178,8701 11050,10867 11015,10801 "/>
      <polygon id="224" class="fil17" points="12178,8701 11022,10814 10988,10747 "/>
      <polygon id="225" class="fil17" points="12178,8701 10995,10760 10961,10692 "/>
      <polygon id="226" class="fil16" points="12178,8701 10968,10705 10936,10635 "/>
      <polygon id="227" class="fil15" points="12178,8701 10942,10649 10911,10577 "/>
      <polygon id="228" class="fil15" points="12178,8701 10917,10592 10886,10519 "/>
      <polygon id="229" class="fil14" points="12178,8701 10892,10533 10863,10459 "/>
      <polygon id="230" class="fil13" points="12178,8701 10869,10474 10840,10398 "/>
      <polygon id="231" class="fil13" points="12178,8701 10846,10413 10818,10336 "/>
      <polygon id="232" class="fil12" points="12178,8701 10824,10351 10797,10273 "/>
      <polygon id="233" class="fil11" points="12178,8701 10803,10288 10777,10209 "/>
      <polygon id="234" class="fil10" points="12178,8701 10782,10225 10758,10144 "/>
      <polygon id="235" class="fil9" points="12178,8701 10763,10160 10740,10078 "/>
      <polygon id="236" class="fil9" points="12178,8701 10744,10095 10722,10012 "/>
      <polygon id="237" class="fil9" points="12178,8701 10726,10028 10705,9944 "/>
      <polygon id="238" class="fil8" points="12178,8701 10709,9961 10689,9876 "/>
      <polygon id="239" class="fil8" points="12178,8701 10693,9893 10674,9808 "/>
      <polygon id="240" class="fil8" points="12178,8701 10678,9825 10660,9738 "/>
      <polygon id="241" class="fil7" points="12178,8701 10664,9755 10647,9668 "/>
      <polygon id="242" class="fil7" points="12178,8701 10651,9686 10635,9597 "/>
      <polygon id="243" class="fil7" points="12178,8701 10638,9615 10624,9526 "/>
      <polygon id="244" class="fil6" points="12178,8701 10627,9544 10613,9455 "/>
      <polygon id="245" class="fil5" points="12178,8701 10616,9472 10604,9382 "/>
      <polygon id="246" class="fil5" points="12178,8701 10606,9400 10596,9310 "/>
      <polygon id="247" class="fil4" points="12178,8701 10598,9328 10588,9237 "/>
      <polygon id="248" class="fil4" points="12178,8701 10590,9255 10582,9164 "/>
      <polygon id="249" class="fil3" points="12178,8701 10583,9182 10576,9090 "/>
      <polygon id="250" class="fil2" points="12178,8701 10577,9109 10571,9016 "/>
      <polygon id="251" class="fil2" points="12178,8701 10573,9035 10568,8942 "/>
      <polygon id="252" class="fil2" points="12178,8701 10569,8961 10565,8868 "/>
      <polygon id="253" class="fil1" points="12178,8701 10566,8887 10563,8794 "/>
      <polygon id="254" class="fil1" points="12178,8701 10564,8813 10563,8720 "/>
      <polygon id="255" class="fil176" points="12178,8701 10563,8738 10563,8664 "/>
     </g>
    </g>
    <path class="fil178" d="M11355 10510l-195 111 -925 528c-138,78 -293,78 -431,0l-925 -528 -195 -111 1336 -739 1335 739z"/>
    <path class="fil179" d="M9639 8673l360 -199 0 -867 -1330 -742 -649 370 1260 711 12 7 0 14 0 239 0 13 -11 7 -829 478 838 480 12 7 0 13 0 169 0 14 -12 7 -1260 716 654 373 1315 -728 0 -841 -360 -200 -37 -21 37 -20zm407 -225l0 39 0 414 0 39 0 818 1309 725 654 -373 -1255 -732 -12 -7 0 -13 0 -1385 0 -13 12 -7 1263 -718 -649 -371 -1322 745 0 839zm1320 2082l-194 111 -925 528c-71,40 -145,61 -220,62l-4 0 0 0 -3 0 -1 0 -3 0 0 0 -4 0c-75,-1 -150,-22 -220,-62l-925 -528 -894 -509 -2 -1 -21 -13c-75,-42 -134,-101 -174,-170 -40,-69 -61,-150 -61,-236l0 -1042 0 -1042c0,-86 21,-166 61,-236 40,-69 99,-128 174,-170l12 -7 11 -7 683 -389 211 -120 925 -528c73,-41 150,-62 227,-62l1 0 1 0 2 0c77,1 153,21 225,62l925 528 104 59 103 59 36 20 0 1 648 370 12 6 13 8c75,42 133,101 173,170 41,70 62,150 62,236l0 1042 0 1042c0,86 -21,167 -62,236 -40,69 -98,128 -173,170l-26 15 -661 377 0 0 -36 20zm-59 -20l-1288 -713 -1288 713 159 91 925 527c63,36 131,55 198,56l3 0 0 0 3 0 1 0 3 0 0 0 3 0c67,-1 134,-20 198,-56l925 -527 158 -91zm759 -3248l-2 -1 -1275 726 0 1358 1267 739 10 -6c67,-38 120,-91 156,-153 36,-63 55,-135 55,-213l0 -1042 0 -1042c0,-78 -19,-150 -55,-213 -36,-62 -89,-114 -156,-153zm-2046 -1106c-69,0 -138,19 -203,56l-925 527 -175 100 1307 729 1297 -730 -172 -99 -925 -527c-65,-37 -133,-55 -201,-56l-2 0 -1 0zm-2038 3981l-9 -5m0 -54l10 5 1272 -723 0 -142 -861 -494 -35 -20 35 -20 852 -492 0 -212 -1273 -718 0 0c-68,39 -120,91 -156,153 -36,63 -56,135 -56,213l0 1042 0 1042c0,78 20,150 56,213 36,62 88,115 156,153zm2026 -1551l-301 166 301 168 0 -334z"/>
    <polygon class="fil180" points="9999,8672 9999,8527 9698,8693 9999,8861 "/>
   </g>
   <path class="fil181" d="M4719 12289c128,-77 211,-212 211,-361 0,-248 -216,-428 -513,-428l-755 0 0 1672 771 0c308,0 542,-205 542,-476 0,-182 -98,-332 -256,-407l0 0zm-226 -285c0,87 -59,146 -156,146l-233 0 0 -292 233 0c97,0 156,59 156,146l0 0zm-138 790l-251 0 0 -304 251 0c99,0 165,63 165,151 0,90 -66,153 -165,153l0 0zm2170 -279c0,-379 -287,-675 -704,-675 -405,0 -701,290 -701,686 0,395 299,689 701,689 324,0 585,-184 676,-479l-442 0c-43,76 -130,121 -234,121 -140,0 -234,-76 -263,-224l958 0c6,-40 9,-79 9,-118l0 0zm-704 -327c135,0 227,69 266,199l-521 0c36,-129 126,-199 255,-199l0 0zm1588 595c-94,0 -150,-56 -150,-148l0 -411 313 0 0 -342 -325 0 0 -377 -91 0 -578 615 0 104 237 0 0 487c0,287 173,461 459,461l305 0 0 -389 -170 0zm1077 0c-93,0 -149,-56 -149,-148l0 -411 313 0 0 -342 -325 0 0 -377 -91 0 -578 615 0 104 236 0 0 487c0,287 174,461 459,461l306 0 0 -389 -171 0zm1696 -268c0,-379 -288,-675 -704,-675 -405,0 -701,290 -701,686 0,395 298,689 701,689 324,0 584,-184 675,-479l-442 0c-42,76 -129,121 -233,121 -140,0 -234,-76 -264,-224l959 0c5,-40 9,-79 9,-118l0 0zm-704 -327c134,0 227,69 266,199l-522 0c36,-129 126,-199 256,-199l0 0zm1630 -313c-154,0 -265,44 -356,149l-69 -142 -298 0 0 1290 445 0 0 -657c0,-165 65,-234 223,-234l172 0 0 -406 -117 0zm1396 1340c445,0 787,-299 851,-738l-472 0c-47,185 -192,306 -378,306 -237,0 -411,-187 -411,-445 0,-259 174,-450 411,-450 176,0 320,111 378,283l467 0c-68,-424 -408,-714 -846,-714 -509,0 -889,377 -889,881 0,500 380,877 889,877l0 0zm2092 -1334l-46 99c-106,-87 -242,-138 -394,-138 -395,0 -677,284 -677,684 0,401 282,689 677,689 150,0 284,-50 389,-135l38 91 344 0 0 -1290 -331 0zm-381 940c-166,0 -289,-125 -289,-294 0,-168 122,-294 289,-294 167,0 289,126 289,294 0,168 -122,294 -289,294l0 0zm993 351l445 0 0 -1756 -445 0 0 1756zm724 0l445 0 0 -1756 -445 0 0 1756z"/>
   <path class="fil181" d="M3701 13603l61 0 0 277 172 0 0 51 -233 0 0 -328zm952 277l0 51 -247 0 0 -328 240 0 0 51 -179 0 0 85 159 0 0 51 -159 0 0 90 186 0zm706 -25l-165 0 -32 76 -63 0 148 -328 60 0 148 328 -64 0 -32 -76zm-21 -48l-62 -143 -61 143 123 0zm718 -204c29,0 54,4 75,14 21,9 37,23 49,40 11,18 17,38 17,63 0,23 -6,44 -17,62 -12,18 -28,31 -49,40 -21,10 -46,15 -75,15l-74 0 0 94 -61 0 0 -328 135 0zm-2 182c26,0 47,-6 60,-17 14,-11 21,-27 21,-48 0,-21 -7,-38 -21,-49 -13,-11 -34,-17 -60,-17l-72 0 0 131 72 0zm807 -182l61 0 0 328 -61 0 0 -328zm867 0l0 328 -51 0 -181 -222 0 222 -61 0 0 -328 51 0 181 222 0 -222 61 0zm579 51l-109 0 0 -51 279 0 0 51 -109 0 0 277 -61 0 0 -277zm789 282c-34,0 -64,-7 -91,-22 -27,-14 -48,-34 -63,-60 -16,-26 -23,-55 -23,-87 0,-32 7,-61 23,-87 15,-25 36,-46 63,-60 27,-15 57,-22 91,-22 33,0 63,7 90,22 27,14 48,34 64,60 15,26 23,55 23,87 0,32 -8,61 -23,87 -16,26 -37,46 -64,60 -27,15 -57,22 -90,22zm0 -53c22,0 41,-5 59,-15 17,-10 31,-24 41,-42 10,-17 15,-37 15,-59 0,-22 -5,-42 -15,-59 -10,-18 -24,-32 -41,-42 -18,-10 -37,-15 -59,-15 -22,0 -42,5 -59,15 -18,10 -32,24 -42,42 -10,17 -15,37 -15,59 0,22 5,42 15,59 10,18 24,32 42,42 17,10 37,15 59,15zm908 -229l-109 0 0 -51 279 0 0 51 -109 0 0 277 -61 0 0 -277zm932 -51l0 328 -61 0 0 -140 -170 0 0 140 -61 0 0 -328 61 0 0 135 170 0 0 -135 61 0zm759 277l0 51 -247 0 0 -328 240 0 0 51 -179 0 0 85 159 0 0 51 -159 0 0 90 186 0zm728 -226l0 100 159 0 0 52 -159 0 0 125 -61 0 0 -328 240 0 0 51 -179 0zm804 282c-46,0 -81,-13 -106,-38 -26,-26 -38,-62 -38,-110l0 -185 61 0 0 183c0,64 28,97 83,97 56,0 84,-33 84,-97l0 -183 60 0 0 185c0,48 -13,84 -38,110 -25,25 -61,38 -106,38zm714 -282l-109 0 0 -51 279 0 0 51 -109 0 0 277 -61 0 0 -277zm775 282c-45,0 -81,-13 -106,-38 -25,-26 -38,-62 -38,-110l0 -185 61 0 0 183c0,64 28,97 84,97 55,0 83,-33 83,-97l0 -183 60 0 0 185c0,48 -13,84 -38,110 -25,25 -60,38 -106,38zm869 -5l-67 -96c-3,0 -7,1 -13,1l-74 0 0 95 -61 0 0 -328 135 0c28,0 53,4 74,14 22,9 38,23 49,40 11,18 17,38 17,63 0,24 -6,46 -18,63 -12,18 -30,32 -52,40l76 108 -66 0zm-2 -211c0,-21 -6,-38 -20,-49 -14,-11 -34,-17 -61,-17l-71 0 0 131 71 0c27,0 47,-5 61,-17 14,-11 20,-27 20,-48zm801 160l0 51 -247 0 0 -328 240 0 0 51 -179 0 0 85 159 0 0 51 -159 0 0 90 186 0z"/>
  </g>
 </g>
</svg>
